<svg viewBox="0 0 205.979 205.979" xmlns="http://www.w3.org/2000/svg">
  <g>
    <ellipse 
      fill="#556b2f"
      cx="102.989" 
      cy="120.685" 
      rx="55.332" 
      ry="76.156"
    />
    <path 
      fill="#45562a"
      d="M39.163,124.124c0,23.721,8.021,45.026,20.76,59.7c16.632-12.247,28.149-38.68,28.149-69.33 c0-24.012-7.071-45.434-18.13-59.479C51.529,68.943,39.163,94.67,39.163,124.124z"
    />
    <path 
      fill="#45562a"
      d="M166.816,124.124c0,23.721-8.021,45.026-20.76,59.7c-16.633-12.247-28.149-38.68-28.149-69.33 c0-24.012,7.071-45.434,18.13-59.479C154.45,68.943,166.816,94.67,166.816,124.124z"
    />
    <g>
      <path fill="#f59e0b" d="M81.309,201.876c0,2.266-1.837,4.103-4.103,4.103l0,0c-2.266,0-4.102-1.837-4.102-4.103v-15.291 c0-2.266,1.837-4.103,4.102-4.103l0,0c2.266,0,4.103,1.837,4.103,4.103V201.876z"/>
      <path fill="#f59e0b" d="M97.719,201.876c0,2.266-1.837,4.103-4.103,4.103l0,0c-2.266,0-4.102-1.837-4.102-4.103v-15.291 c0-2.266,1.837-4.103,4.102-4.103l0,0c2.266,0,4.103,1.837,4.103,4.103V201.876z"/>
      <path fill="#f59e0b" d="M89.514,201.876c0,2.266-1.837,4.103-4.103,4.103l0,0c-2.266,0-4.103-1.837-4.103-4.103v-15.291 c0-2.266,1.837-4.103,4.103-4.103l0,0c2.266,0,4.103,1.837,4.103,4.103V201.876z"/>
      <path fill="#f59e0b" d="M116.464,201.876c0,2.266-1.837,4.103-4.103,4.103l0,0c-2.266,0-4.103-1.837-4.103-4.103 v-15.291c0-2.266,1.837-4.103,4.103-4.103l0,0c2.266,0,4.103,1.837,4.103,4.103V201.876z"/>
      <path fill="#f59e0b" d="M132.875,201.876c0,2.266-1.837,4.103-4.103,4.103l0,0c-2.266,0-4.102-1.837-4.102-4.103 v-15.291c0-2.266,1.837-4.103,4.102-4.103l0,0c2.266,0,4.103,1.837,4.103,4.103V201.876z"/>
      <path fill="#f59e0b" d="M124.669,201.876c0,2.266-1.836,4.103-4.103,4.103l0,0c-2.266,0-4.103-1.837-4.103-4.103 v-15.291c0-2.266,1.837-4.103,4.103-4.103l0,0c2.267,0,4.103,1.837,4.103,4.103V201.876z"/>
    </g>
    <g>
      <circle fill="#384623" cx="73.543" cy="46.063" r="31.668"/>
      <circle fill="#556b2f" cx="73.543" cy="46.063" r="21.161"/>
      <circle fill="#fbbf24" cx="73.543" cy="46.063" r="15.448"/>
      <circle fill="#2d3a1c" cx="73.543" cy="46.063" r="8.651"/>
      <circle fill="white" cx="67.007" cy="40.388" r="3.534"/>
    </g>
    <g>
      <circle fill="#384623" cx="132.435" cy="46.063" r="31.668"/>
      <circle fill="#556b2f" cx="132.436" cy="46.063" r="21.161"/>
      <circle fill="#fbbf24" cx="132.436" cy="46.063" r="15.449"/>
      <circle fill="#2d3a1c" cx="132.436" cy="46.063" r="8.651"/>
      <circle fill="white" cx="125.899" cy="40.388" r="3.534"/>
    </g>
    <path fill="#d97706" d="M102.989,57.07c-5.427,0-10.543,7.831-10.543,7.831c0,11.885,10.543,19.171,10.543,19.171 s10.544-7.222,10.544-19.107C113.533,64.965,108.417,57.07,102.989,57.07z"/>
    <path fill="#45562a" d="M102.989,35.192c0,0-6.918-18.179-20.795-18.179c-6.079,0-14.113,0-18.721,0 c-4.607,0-15.816-6.38-15.816-17.012c0,0,28.221,0,36.491,0C96.199,0.001,102.989,15.123,102.989,35.192z"/>
    <path fill="#45562a" d="M102.989,35.192c0,0,6.919-18.179,20.795-18.179c6.079,0,14.113,0,18.721,0 c4.607,0,15.816-6.38,15.816-17.012c0,0-28.222,0-36.491,0C109.78,0.001,102.989,15.123,102.989,35.192z"/>
  </g>
</svg>
